<?xml version="1.0" encoding="UTF-8"?>
<svg version="1.1" xmlns="http://www.w3.org/2000/svg" width="512" height="512">
<path d="M0 0 C0.88293948 -0.00155999 1.76587896 -0.00311998 2.67557418 -0.00472724 C5.62234618 -0.00870301 8.56906628 -0.00556081 11.51583862 -0.00241089 C13.63368256 -0.0037665 15.75152625 -0.00554734 17.86936951 -0.00772095 C23.61551826 -0.01227785 29.36164904 -0.01051242 35.1077981 -0.00734186 C41.13019515 -0.00480729 47.15259068 -0.00715905 53.17498779 -0.00872803 C63.29462967 -0.01054735 73.41426426 -0.00815049 83.53390503 -0.00338745 C95.21207584 0.00204589 106.89022917 0.00029831 118.56839955 -0.00521386 C128.60857738 -0.00976227 138.64874996 -0.01038682 148.68892848 -0.00777519 C154.67911813 -0.00622078 160.66929957 -0.00599548 166.65948868 -0.00931168 C172.29836017 -0.0122152 177.93720932 -0.01016934 183.57607841 -0.00441742 C185.63792191 -0.0031027 187.69976731 -0.00346187 189.76161003 -0.00568008 C200.22822914 -0.01589607 210.58439183 0.06151493 221.00753784 1.12698364 C221.00753784 1.78698364 221.00753784 2.44698364 221.00753784 3.12698364 C222.14191284 3.41573364 223.27628784 3.70448364 224.44503784 4.00198364 C225.62066284 4.37323364 226.79628784 4.74448364 228.00753784 5.12698364 C228.33753784 5.78698364 228.66753784 6.44698364 229.00753784 7.12698364 C229.99753784 7.45698364 230.98753784 7.78698364 232.00753784 8.12698364 C233.01535034 9.96292114 233.01535034 9.96292114 234.00753784 12.12698364 C234.94396811 13.35236953 235.90373205 14.56017349 236.88253784 15.75198364 C244.2177425 25.41867145 245.16014898 35.82466462 245.15280151 47.5774231 C245.15783943 48.76480072 245.15783943 48.76480072 245.16297913 49.97616577 C245.17239153 52.56421527 245.17442727 55.1521994 245.17550659 57.74026489 C245.17872579 59.55953497 245.18209035 61.37880479 245.18559265 63.19807434 C245.19155957 67.0014506 245.19343505 70.80480421 245.19284058 74.60818481 C245.19273907 79.45289977 245.20639094 84.29746782 245.22361279 89.14214802 C245.23479635 92.89737092 245.23675784 96.65255901 245.23623085 100.40779686 C245.23740141 102.19255263 245.24177053 103.97730958 245.24956322 105.76204872 C245.31729952 122.87609323 244.26638796 136.66739895 233.24191284 150.53323364 C231.92958998 152.12111611 231.92958998 152.12111611 231.00753784 154.12698364 C230.01753784 154.45698364 229.02753784 154.78698364 228.00753784 155.12698364 C227.29597534 155.86948364 227.29597534 155.86948364 226.57003784 156.62698364 C224.72272087 158.40040794 223.4915728 158.66122709 221.00753784 159.12698364 C220.01753784 159.45698364 219.02753784 159.78698364 218.00753784 160.12698364 C210.56604565 161.26459664 203.09072837 161.26474065 195.58126831 161.24050903 C194.38011887 161.24065506 193.17896942 161.24080109 191.94142151 161.24095154 C188.67970344 161.24037829 185.41802947 161.23539715 182.1563201 161.22837758 C178.7357258 161.22208444 175.31513044 161.22153556 171.89453125 161.22035217 C165.43144204 161.21725631 158.96836995 161.20906667 152.50528824 161.19900268 C145.14123269 161.18778707 137.77717629 161.18231742 130.41311431 161.17730725 C115.27791265 161.16688242 100.14272697 161.1493171 85.00753784 161.12698364 C85.00753784 161.78698364 85.00753784 162.44698364 85.00753784 163.12698364 C84.34753784 163.12698364 83.68753784 163.12698364 83.00753784 163.12698364 C82.67753784 163.78698364 82.34753784 164.44698364 82.00753784 165.12698364 C80.86625716 166.26826433 79.72338229 167.4079817 78.57394409 168.54104614 C72.66756161 174.5210743 67.44792523 181.03258746 62.30831909 187.66702271 C58.502562 192.5590063 54.53195269 197.29044505 50.44772339 201.95217896 C48.370978 204.35429006 47.02394302 206.07776812 46.00753784 209.12698364 C44.36265491 210.81515297 42.69416242 212.48051679 41.00753784 214.12698364 C39.42555029 216.10446808 38.1376698 217.86671973 37.00753784 220.12698364 C35.89208718 221.18093076 34.74153978 222.19821277 33.57003784 223.18948364 C32.9525769 223.71671021 32.33511597 224.24393677 31.69894409 224.78713989 C28.6564024 227.19728262 26.0616936 227.5771733 22.17550659 227.54885864 C18.20884306 226.77696736 15.64265331 224.05409839 13.00753784 221.12698364 C12.34753784 220.13698364 11.68753784 219.14698364 11.00753784 218.12698364 C10.67753784 218.12698364 10.34753784 218.12698364 10.00753784 218.12698364 C10.00753784 199.31698364 10.00753784 180.50698364 10.00753784 161.12698364 C3.73753784 161.12698364 -2.53246216 161.12698364 -8.99246216 161.12698364 C-13.34767703 160.84371763 -17.65748952 160.56281572 -21.99246216 160.12698364 C-21.99246216 159.46698364 -21.99246216 158.80698364 -21.99246216 158.12698364 C-23.08558716 157.85885864 -24.17871216 157.59073364 -25.30496216 157.31448364 C-28.88130928 156.16277864 -29.65025625 155.74139186 -31.99246216 153.12698364 C-32.45265747 152.65260864 -32.91285278 152.17823364 -33.38699341 151.68948364 C-46.102692 137.67769456 -46.30816036 123.00956616 -46.29324341 105.10354614 C-46.29713755 103.15118317 -46.30147368 101.19882103 -46.30622864 99.24645996 C-46.31366262 95.16656745 -46.31342011 91.08676151 -46.30813599 87.00686646 C-46.30234509 81.80674436 -46.3192771 76.60697887 -46.34248066 71.40691566 C-46.3572899 67.37803107 -46.35807996 63.34923094 -46.35497093 59.32032394 C-46.35548053 57.40438506 -46.36064954 55.48844099 -46.37078285 53.57252884 C-46.45370837 35.70346194 -44.39350405 21.83339836 -31.99246216 8.12698364 C-31.35308716 7.36385864 -30.71371216 6.60073364 -30.05496216 5.81448364 C-27.39041875 3.63440267 -25.3818232 3.53370697 -21.99246216 3.12698364 C-21.02308716 2.79698364 -20.05371216 2.46698364 -19.05496216 2.12698364 C-12.78611362 0.08001269 -6.52228292 -0.01785031 0 0 Z " fill="#61B9A6" transform="translate(235.99246215820313,207.87301635742188)"/>
<path d="M0 0 C2.24329802 -0.0024311 4.48659495 -0.0061535 6.72988892 -0.01106262 C12.79369723 -0.02043 18.85734296 -0.01108198 24.92113853 0.00226951 C31.27903487 0.01362456 37.63692369 0.00947347 43.99482727 0.00752258 C54.66634105 0.00664108 65.33778482 0.01762001 76.00927734 0.03613281 C86.97283856 0.05514708 97.93632582 0.06221583 108.89990234 0.05664062 C122.14085577 0.04992717 135.38176841 0.05323979 148.62272072 0.0657444 C153.66994648 0.07038176 158.71715219 0.07126799 163.7643795 0.06915855 C169.70784306 0.06727182 175.65121208 0.07540925 181.59465408 0.09121895 C183.77266995 0.09545272 185.95069542 0.09631847 188.12871361 0.09352875 C191.1071675 0.09029313 194.08534136 0.09942344 197.06376648 0.11161804 C197.92039263 0.10783872 198.77701878 0.10405939 199.6596033 0.10016555 C206.33725551 0.14835233 212.42688762 1.26159926 218.7590332 3.37231445 C218.7590332 4.03231445 218.7590332 4.69231445 218.7590332 5.37231445 C219.3777832 5.68168945 219.9965332 5.99106445 220.6340332 6.30981445 C228.27210505 10.12885037 232.8182218 18.50884049 235.7590332 26.37231445 C238.67562354 36.05128979 238.04929084 46.25331547 238.0246582 56.24731445 C238.02600784 58.18204802 238.02795086 60.11678126 238.03045654 62.05151367 C238.03339374 66.09272513 238.02915553 70.13384775 238.01977539 74.17504883 C238.00838176 79.33270338 238.01494877 84.4901497 238.02692032 89.64779663 C238.03417694 93.63885035 238.03183358 97.6298554 238.02666473 101.62091064 C238.02533874 103.52174912 238.02693877 105.42259213 238.03162384 107.32342529 C238.06534287 124.84567592 237.26916516 137.05324071 224.68481445 150.1730957 C222.5658883 152.30662512 222.5658883 152.30662512 221.7590332 155.37231445 C218.2429535 158.14255907 215.15098988 158.79476973 210.8215332 159.16137695 C208.70700127 159.33754138 208.70700127 159.33754138 206.46568012 159.87939453 C203.70206833 160.38268859 201.19694151 160.48592058 198.3901825 160.4699707 C197.32627289 160.46675308 196.26236328 160.46353546 195.16621399 160.46022034 C194.00921494 160.4518364 192.85221588 160.44345245 191.66015625 160.43481445 C189.1183023 160.42537088 186.57644737 160.41618707 184.03459167 160.40722656 C182.67473524 160.40090114 181.31487895 160.39454277 179.95502281 160.38815308 C175.73918635 160.37015375 171.52344033 160.36823545 167.30757141 160.37060547 C166.23857126 160.37115921 166.23857126 160.37115921 165.14797515 160.37172413 C162.95387454 160.37304158 160.75977423 160.37459879 158.56567383 160.3762207 C149.4929222 160.38292723 140.42074479 160.3780804 131.34814453 160.32104492 C124.72371428 160.27951163 118.10009085 160.26986227 111.47557479 160.29715538 C107.97373986 160.31037175 104.47357829 160.30765311 100.97192955 160.26611328 C97.06267321 160.22012884 93.15554059 160.24463053 89.24609375 160.2746582 C87.51970421 160.23779152 87.51970421 160.23779152 85.75843811 160.20018005 C81.09118452 160.28435744 77.99384293 160.40367644 74.24582863 163.34378052 C71.32034111 166.54115291 69.13614557 169.24097736 67.7590332 173.37231445 C66.6387622 174.52653306 65.51184466 175.67502348 64.3527832 176.7902832 C58.7523737 182.34951322 53.31086965 188.26864155 49.7590332 195.37231445 C48.09536144 197.04197065 46.42800348 198.70795459 44.7590332 200.37231445 C42.63267148 202.71076503 40.56836192 205.09981166 38.5090332 207.49731445 C37.96762695 208.11735352 37.4262207 208.73739258 36.8684082 209.3762207 C36.3527832 209.97563477 35.8371582 210.57504883 35.3059082 211.19262695 C34.84023437 211.73161621 34.37456055 212.27060547 33.89477539 212.82592773 C32.54817088 214.49373571 32.54817088 214.49373571 31.7590332 217.37231445 C30.09236654 219.03898112 28.42569987 220.70564779 26.7590332 222.37231445 C26.4084082 223.11481445 26.0577832 223.85731445 25.6965332 224.62231445 C24.7590332 226.37231445 24.7590332 226.37231445 23.12231445 227.0402832 C19.92737675 227.48915875 17.18362034 226.97449427 14.0090332 226.43481445 C12.25333008 226.1428418 12.25333008 226.1428418 10.4621582 225.8449707 C9.12411133 225.61100586 9.12411133 225.61100586 7.7590332 225.37231445 C7.56567383 224.80641602 7.37231445 224.24051758 7.1730957 223.6574707 C6.91270508 222.92399414 6.65231445 222.19051758 6.3840332 221.43481445 C6.12879883 220.70391602 5.87356445 219.97301758 5.6105957 219.2199707 C4.90631907 217.1854933 4.90631907 217.1854933 2.7590332 216.37231445 C2.7590332 198.55231445 2.7590332 180.73231445 2.7590332 162.37231445 C-4.1709668 162.37231445 -11.1009668 162.37231445 -18.2409668 162.37231445 C-18.5709668 161.71231445 -18.9009668 161.05231445 -19.2409668 160.37231445 C-21.45671224 159.75528637 -21.45671224 159.75528637 -24.0534668 159.37231445 C-30.03165734 158.38330804 -33.65259954 156.32044442 -38.2409668 152.37231445 C-38.79010742 151.91211914 -39.33924805 151.45192383 -39.9050293 150.9777832 C-49.14600914 142.61205035 -52.66812348 131.51080965 -53.35647011 119.3280735 C-53.54449054 113.7087021 -53.52146424 108.08784954 -53.5065918 102.46606445 C-53.50794256 100.65108183 -53.5098865 98.83609956 -53.51239014 97.02111816 C-53.51532207 93.2356417 -53.51110639 89.45026025 -53.50170898 85.66479492 C-53.49031566 80.84369082 -53.49688555 76.02280952 -53.50885391 71.20171356 C-53.51612497 67.45935425 -53.51376065 63.71704665 -53.50859833 59.97468567 C-53.5072763 58.19830803 -53.50885804 56.4219255 -53.51355743 54.64555359 C-53.54832746 37.81395782 -52.20851426 24.46436432 -42.2409668 10.37231445 C-41.5809668 9.38231445 -40.9209668 8.39231445 -40.2409668 7.37231445 C-39.2509668 7.04231445 -38.2609668 6.71231445 -37.2409668 6.37231445 C-36.55407508 5.65036408 -36.55407508 5.65036408 -35.85330677 4.91382885 C-27.91868106 -2.67225099 -10.12272651 -0.03849907 0 0 Z " fill="#E75F62" transform="translate(84.240966796875,20.627685546875)"/>
<path d="M0 0 C1.063692 -0.00720654 2.12738401 -0.01441309 3.2233091 -0.02183801 C4.39605462 -0.01446372 5.56880014 -0.00708944 6.7770834 0.00050831 C8.01963546 -0.0034661 9.26218752 -0.0074405 10.54239267 -0.01153535 C13.99800955 -0.01951414 17.45313312 -0.01397533 20.90871012 -0.00278485 C24.63266842 0.00603758 28.35659229 -0.00238063 32.08055019 -0.00864697 C39.37809212 -0.0181482 46.67553536 -0.01152373 53.97306997 0.00061598 C62.4646978 0.01421748 70.95630195 0.01259978 79.4479379 0.01048265 C94.59465559 0.00729088 109.74132629 0.01897163 124.88803005 0.03854847 C139.59865659 0.0575568 154.30922805 0.06463538 169.01986599 0.05905628 C185.02544545 0.05300406 201.03100068 0.05316507 217.03657812 0.06454211 C218.74188324 0.06574945 220.44718836 0.06695544 222.15249348 0.06816006 C223.41117818 0.06906537 223.41117818 0.06906537 224.69529085 0.06998896 C230.62000921 0.07387471 236.54471858 0.07347196 242.4694376 0.07157421 C249.68495101 0.06945625 256.90041608 0.07464603 264.11591584 0.08918776 C267.80016575 0.09645155 271.48434512 0.10049196 275.16860104 0.0959444 C279.1549235 0.09114352 283.14111667 0.1017453 287.12742519 0.1140337 C288.30240143 0.11025438 289.47737767 0.10647505 290.68795925 0.1025812 C291.74904351 0.1084134 292.81012776 0.11424559 293.90336609 0.12025452 C294.82446027 0.12112129 295.74555446 0.12198807 296.69456059 0.12288111 C299.59097381 0.45532945 300.40174976 1.77260531 302.17782497 3.96848011 C305.95885388 9.36363247 306.93801754 13.84227116 305.88876247 20.37473011 C304.57626247 23.24973011 304.57626247 23.24973011 302.88876247 25.37473011 C302.17719997 26.48848011 302.17719997 26.48848011 301.45126247 27.62473011 C299.55630529 29.74708215 298.65317842 29.88048988 295.88876247 30.37473011 C294.1543236 30.46326057 292.41682191 30.49849796 290.68012524 30.49777794 C289.62017558 30.49976899 288.56022592 30.50176004 287.46815658 30.50381142 C285.72303405 30.49944216 285.72303405 30.49944216 283.94265652 30.49498463 C282.706006 30.49583905 281.46935549 30.49669348 280.19523072 30.49757379 C276.76097163 30.49893772 273.32676933 30.49580633 269.89251709 30.49079573 C266.18975799 30.48648213 262.48700068 30.4879383 258.78423977 30.48869801 C252.36838012 30.48922266 245.95253064 30.48608193 239.53667355 30.48046017 C230.26039182 30.47233729 220.984115 30.46972914 211.7078301 30.46847218 C196.65811206 30.4662829 181.60839944 30.45962617 166.55868435 30.45016956 C151.93824192 30.44099224 137.31780095 30.43391297 122.69735622 30.42966175 C121.79633445 30.42939903 120.89531268 30.4291363 119.96698722 30.42886562 C115.44688025 30.42756059 110.92677327 30.42629688 106.40666628 30.42505372 C68.90069452 30.41468497 31.39472892 30.39707002 -6.11123753 30.37473011 C-6.40901096 29.74695667 -6.7067844 29.11918324 -7.01358128 28.47238636 C-8.00297657 26.32743193 -8.00297657 26.32743193 -9.67373753 24.81223011 C-12.29683718 22.18913046 -12.31976633 19.14880633 -12.42373753 15.62473011 C-12.37128387 9.63627148 -10.48839666 6.38480251 -6.79397112 1.70674449 C-4.47289552 -0.13056719 -2.9416694 -0.00017567 0 0 Z " fill="#2A2A2A" transform="translate(109.11123752593994,460.62526988983154)"/>
<path d="M0 0 C4.72924803 3.51511396 9.62553351 8.51681264 10.88671875 14.40234375 C11.88893886 22.15562987 10.25890685 27.93610767 5.88671875 34.40234375 C1.88608353 38.9964798 -3.45439631 41.91129864 -9.5 42.72265625 C-15.54975019 43.00059271 -20.21131474 42.03568539 -25.11328125 38.40234375 C-31.3514433 32.61943219 -34.08159056 27.55488452 -34.55078125 19.02734375 C-34.40486806 12.30621756 -31.99221565 8.40848688 -27.43359375 3.6484375 C-19.79022375 -3.40044817 -9.25073112 -5.2727291 0 0 Z " fill="#2F2A2A" transform="translate(112.11328125,93.59765625)"/>
<path d="M0 0 C5.50863019 3.06132474 8.89792531 7.42085061 11.6875 13 C12.34307555 22.01416378 11.717711 27.90924551 7.125 35.625 C2.24800972 40.37693924 -3.58423722 43.26637136 -10.4375 43.5625 C-16.80899745 43.20241537 -21.25139506 40.73320188 -26.0625 36.6875 C-31.75910562 29.88322106 -33.11712007 25.41256588 -32.8125 16.4453125 C-31.87208258 9.9652487 -29.00123849 6.25703877 -24.07421875 2.12109375 C-16.23903089 -3.26481688 -8.6848986 -3.81510538 0 0 Z " fill="#2E2A2A" transform="translate(270.3125,93)"/>
<path d="M0 0 C4.50334071 3.23992499 7.52260466 7.39203273 9.26953125 12.6328125 C9.91132689 20.32383893 10.12525244 27.30383844 5.26953125 33.6328125 C-0.06095845 38.9633022 -5.51247342 41.72863392 -13.04296875 42.1953125 C-20.56105446 41.9882027 -26.02494719 38.33833406 -31.23046875 33.1328125 C-35.14598879 26.60694577 -35.51590131 20.10449144 -34.73046875 12.6328125 C-32.68971824 5.73559244 -26.2954909 0.79058907 -20.35546875 -2.8046875 C-12.81149938 -4.42125237 -6.7942697 -3.74487306 0 0 Z " fill="#292D2C" transform="translate(351.73046875,282.3671875)"/>
<path d="M0 0 C4.61632068 3.38273186 8.79655386 7.45216159 10.625 12.9375 C10.77148082 15.20513574 10.8459626 17.47782366 10.875 19.75 C10.90078125 20.95269531 10.9265625 22.15539062 10.953125 23.39453125 C10.3556799 29.84551589 7.37901217 33.73627994 2.625 37.9375 C-4.05645507 43.15346998 -10.1846685 42.93160039 -18.375 41.9375 C-24.76501091 39.80749636 -29.08368896 34.66597562 -32.375 28.9375 C-34.40336818 22.86476355 -34.45259462 15.48059447 -31.8125 9.625 C-28.88599964 4.58893755 -24.83375379 1.19546705 -19.6875 -1.4375 C-13.01035435 -2.6973388 -6.07799664 -3.55329034 0 0 Z " fill="#292C2C" transform="translate(270.375,281.0625)"/>
<path d="M0 0 C5.84202528 2.58881905 10.76519167 7.67882085 13.6171875 13.3828125 C14.24899328 21.27520597 14.76154885 28.93361314 9.6171875 35.3828125 C4.24550799 40.94144141 -0.21594338 43.67543642 -8.0703125 43.8828125 C-16.60271143 43.76738983 -21.0235739 40.82818542 -26.8203125 34.8828125 C-30.82516232 28.47505279 -31.32705777 21.79075734 -30.3828125 14.3828125 C-27.96263956 8.05712443 -23.26172811 3.78283871 -17.58984375 0.2734375 C-12.28283838 -1.86815051 -5.46948341 -1.41668587 0 0 Z " fill="#2D2A2A" transform="translate(188.3828125,92.6171875)"/>
<path d="M0 0 C5.78558739 3.35564069 11.05072048 7.20510401 13.125 13.8125 C13.97135806 20.57472818 14.02583384 27.11823792 10.4609375 33.09765625 C6.84201793 37.74299453 2.75642914 41.00386582 -2.875 42.8125 C-10.5260766 43.64540201 -16.74775163 43.68928952 -22.875 38.8125 C-28.40225722 33.27238869 -31.16404094 29.06182372 -31.3125 21.0625 C-31.19635154 13.60576909 -29.569599 9.4882008 -24.34765625 4.29296875 C-17.46492615 -1.78414917 -8.74386303 -3.44277381 0 0 Z " fill="#292C2C" transform="translate(427.875,280.1875)"/>
<path d="M0 0 C98.34 0 196.68 0 298 0 C298 0.33 298 0.66 298 1 C199.66 1 101.32 1 0 1 C0 0.67 0 0.34 0 0 Z " fill="#2B2B2B" transform="translate(107,492)"/>
<path d="M0 0 C97.02 0 194.04 0 294 0 C294 0.33 294 0.66 294 1 C196.98 1 99.96 1 0 1 C0 0.67 0 0.34 0 0 Z " fill="#2A2A2A" transform="translate(109,459)"/>
<path d="M0 0 C74.91 0 149.82 0 227 0 C227 0.33 227 0.66 227 1 C152.09 1 77.18 1 0 1 C0 0.67 0 0.34 0 0 Z " fill="#E75F62" transform="translate(63,19)"/>
<path d="M0 0 C41.58 0 83.16 0 126 0 C126 0.33 126 0.66 126 1 C84.42 1 42.84 1 0 1 C0 0.67 0 0.34 0 0 Z " fill="#E85F62" transform="translate(161,182)"/>
<path d="M0 0 C0.33 0 0.66 0 1 0 C1 28.05 1 56.1 1 85 C0.67 85 0.34 85 0 85 C0 56.95 0 28.9 0 0 Z " fill="#6FB3A7" transform="translate(188,246)"/>
<path d="M0 0 C0.33 0 0.66 0 1 0 C1 28.05 1 56.1 1 85 C0.67 85 0.34 85 0 85 C0 56.95 0 28.9 0 0 Z " fill="#D2686D" transform="translate(323,58)"/>
<path d="M0 0 C0.99 0.33 1.98 0.66 3 1 C2.42636719 1.2371875 1.85273438 1.474375 1.26171875 1.71875 C-1.48399832 3.27418212 -3.12608236 5.11757361 -5.1875 7.5 C-5.88230469 8.2940625 -6.57710937 9.088125 -7.29296875 9.90625 C-9.03414158 11.88613861 -9.03414158 11.88613861 -10 14 C-10.66 14 -11.32 14 -12 14 C-10.76803837 7.68619665 -6.90950098 4.71281012 -2 1 C-1.34 0.67 -0.68 0.34 0 0 Z " fill="#462728" transform="translate(171,93)"/>
<path d="M0 0 C0 0.66 0 1.32 0 2 C-6.44052368 6.90706566 -13.09394356 6.88186881 -21 6 C-21.66 5.34 -22.32 4.68 -23 4 C-21.7315625 4.06960937 -21.7315625 4.06960937 -20.4375 4.140625 C-12.74533064 4.38537584 -6.56756307 0 0 0 Z " fill="#CE6669" transform="translate(275,131)"/>
<path d="M0 0 C-3.14591933 2.80045623 -5.067064 3.35261589 -9.25 3.1875 C-10.14203125 3.16042969 -11.0340625 3.13335937 -11.953125 3.10546875 C-12.62859375 3.07066406 -13.3040625 3.03585938 -14 3 C-14.33 2.34 -14.66 1.68 -15 1 C-13.43784452 0.83013455 -11.8752548 0.66426036 -10.3125 0.5 C-9.44238281 0.4071875 -8.57226562 0.314375 -7.67578125 0.21875 C-5.10276661 0.00840136 -2.58015636 -0.03719144 0 0 Z " fill="#4C2B2C" transform="translate(269,133)"/>
<path d="M0 0 C2.65664779 0.15180845 4.45217862 0.52011425 6.48046875 2.296875 C7.875 3.875 7.875 3.875 10 7 C9.67 7.99 9.34 8.98 9 10 C8.51789063 9.44570312 8.03578125 8.89140625 7.5390625 8.3203125 C6.90742188 7.59585938 6.27578125 6.87140625 5.625 6.125 C4.99851563 5.40570313 4.37203125 4.68640625 3.7265625 3.9453125 C2.52573166 2.5923402 1.2791655 1.2791655 0 0 Z " fill="#C55F63" transform="translate(191,94)"/>
<path d="M0 0 C0.66 0 1.32 0 2 0 C2 0.66 2 1.32 2 2 C5.96 2.99 5.96 2.99 10 4 C10 4.66 10 5.32 10 6 C10.66 6.33 11.32 6.66 12 7 C7.02125936 6.52583422 3.93281242 5.0900669 0 2 C0 1.34 0 0.68 0 0 Z " fill="#502A2B" transform="translate(165,129)"/>
<path d="M0 0 C-1.299375 0.8353125 -1.299375 0.8353125 -2.625 1.6875 C-5.95945073 3.90252798 -8.96205756 6.39604933 -12 9 C-10.80786603 4.36392345 -8.47097229 2.50173811 -4.75390625 -0.1796875 C-3 -1 -3 -1 0 0 Z " fill="#472525" transform="translate(253,94)"/>
<path d="M0 0 C0.99 0.33 1.98 0.66 3 1 C0.69 3.31 -1.62 5.62 -4 8 C-4.66 7.67 -5.32 7.34 -6 7 C-4.02 4.69 -2.04 2.38 0 0 Z " fill="#243431" transform="translate(405,283)"/>
<path d="M0 0 C0.8125 1.6875 0.8125 1.6875 1 4 C-1.4375 6.75 -1.4375 6.75 -4 9 C-4.66 8.67 -5.32 8.34 -6 8 C-5.38125 7.236875 -4.7625 6.47375 -4.125 5.6875 C-1.94402948 3.00374191 -1.94402948 3.00374191 0 0 Z " fill="#69AD9E" transform="translate(440,309)"/>
<path d="M0 0 C0.33 0.99 0.66 1.98 1 3 C-1.97 5.475 -1.97 5.475 -5 8 C-4.45773019 4.20411134 -2.79872437 2.52788007 0 0 Z " fill="#392424" transform="translate(87,95)"/>
<path d="M0 0 C2.64 0 5.28 0 8 0 C8 0.33 8 0.66 8 1 C5.36 1 2.72 1 0 1 C0 0.67 0 0.34 0 0 Z " fill="#E65E63" transform="translate(97,248)"/>
<path d="M0 0 C1.98 0 3.96 0 6 0 C6 0.33 6 0.66 6 1 C4.02 1 2.04 1 0 1 C0 0.67 0 0.34 0 0 Z " fill="#60B9A6" transform="translate(257,436)"/>
<path d="M0 0 C1.98 0 3.96 0 6 0 C6 0.33 6 0.66 6 1 C4.02 1 2.04 1 0 1 C0 0.67 0 0.34 0 0 Z " fill="#68B5A6" transform="translate(444,369)"/>
<path d="M0 0 C0.33 0 0.66 0 1 0 C1 1.98 1 3.96 1 6 C0.67 6 0.34 6 0 6 C0 4.02 0 2.04 0 0 Z " fill="#6CB4A5" transform="translate(481,332)"/>
<path d="M0 0 C0.33 0 0.66 0 1 0 C1 1.98 1 3.96 1 6 C0.67 6 0.34 6 0 6 C0 4.02 0 2.04 0 0 Z " fill="#6BB6A5" transform="translate(481,239)"/>
<path d="M0 0 C0.33 0 0.66 0 1 0 C1 1.98 1 3.96 1 6 C0.67 6 0.34 6 0 6 C0 4.02 0 2.04 0 0 Z " fill="#D6666A" transform="translate(30,145)"/>
<path d="M0 0 C0.33 0 0.66 0 1 0 C1 1.98 1 3.96 1 6 C0.67 6 0.34 6 0 6 C0 4.02 0 2.04 0 0 Z " fill="#D56768" transform="translate(30,51)"/>
<path d="M0 0 C0.33 0 0.66 0 1 0 C1 1.98 1 3.96 1 6 C0.67 6 0.34 6 0 6 C0 4.02 0 2.04 0 0 Z " fill="#E66063" transform="translate(322,50)"/>
<path d="M0 0 C1.65 0 3.3 0 5 0 C5 0.33 5 0.66 5 1 C3.35 1 1.7 1 0 1 C0 0.67 0 0.34 0 0 Z " fill="#69B6A5" transform="translate(221,369)"/>
<path d="M0 0 C0.33 0 0.66 0 1 0 C1 1.65 1 3.3 1 5 C0.67 5 0.34 5 0 5 C0 3.35 0 1.7 0 0 Z " fill="#60BAA6" transform="translate(189,334)"/>
<path d="M0 0 C0.33 0 0.66 0 1 0 C1 1.65 1 3.3 1 5 C0.67 5 0.34 5 0 5 C0 3.35 0 1.7 0 0 Z " fill="#61BAA7" transform="translate(189,238)"/>
<path d="M0 0 C1.65 0 3.3 0 5 0 C5 0.33 5 0.66 5 1 C3.35 1 1.7 1 0 1 C0 0.67 0 0.34 0 0 Z " fill="#5FBAA7" transform="translate(446,207)"/>
<path d="M0 0 C1.65 0 3.3 0 5 0 C5 0.33 5 0.66 5 1 C3.35 1 1.7 1 0 1 C0 0.67 0 0.34 0 0 Z " fill="#62B9A6" transform="translate(220,207)"/>
<path d="M0 0 C0.33 0 0.66 0 1 0 C1 1.65 1 3.3 1 5 C0.67 5 0.34 5 0 5 C0 3.35 0 1.7 0 0 Z " fill="#E85F62" transform="translate(322,146)"/>
<path d="M0 0 C1 4 1 4 1 4 Z " fill="#2B2B2B" transform="translate(416,477)"/>
<path d="M0 0 C1 4 1 4 1 4 Z " fill="#2A2A2A" transform="translate(95,477)"/>
<path d="M0 0 C1 4 1 4 1 4 Z " fill="#2B2B2B" transform="translate(416,471)"/>
<path d="M0 0 C1 4 1 4 1 4 Z " fill="#2B2B2B" transform="translate(95,471)"/>
<path d="M0 0 C4 1 4 1 4 1 Z " fill="#D86569" transform="translate(289,181)"/>
<path d="M0 0 C4 1 4 1 4 1 Z " fill="#D76669" transform="translate(60,181)"/>
<path d="" fill="#5EB8A3" transform="translate(0,0)"/>
<path d="M0 0 C3 1 3 1 3 1 Z " fill="#60B9A7" transform="translate(451,368)"/>
<path d="M0 0 C3 1 3 1 3 1 Z " fill="#60B9A7" transform="translate(217,368)"/>
<path d="" fill="#63B8A6" transform="translate(0,0)"/>
<path d="" fill="#61BAA7" transform="translate(0,0)"/>
<path d="" fill="#DC6466" transform="translate(0,0)"/>
<path d="" fill="#60B8A6" transform="translate(0,0)"/>
<path d="" fill="#65B7A7" transform="translate(0,0)"/>
<path d="M0 0 C3 1 3 1 3 1 Z " fill="#66B6A5" transform="translate(451,208)"/>
<path d="M0 0 C3 1 3 1 3 1 Z " fill="#68B6A7" transform="translate(217,208)"/>
<path d="M0 0 C3 1 3 1 3 1 Z " fill="#E95E62" transform="translate(293,180)"/>
<path d="M0 0 C3 1 3 1 3 1 Z " fill="#E85F62" transform="translate(57,180)"/>
<path d="" fill="#D96569" transform="translate(0,0)"/>
<path d="" fill="#E85F62" transform="translate(0,0)"/>
<path d="" fill="#DC6468" transform="translate(0,0)"/>
<path d="" fill="#E75F61" transform="translate(0,0)"/>
<path d="M0 0 C3 1 3 1 3 1 Z " fill="#DA6568" transform="translate(291,20)"/>
<path d="M0 0 C3 1 3 1 3 1 Z " fill="#DC6467" transform="translate(59,20)"/>
<path d="M0 0 C2 1 2 1 2 1 Z " fill="#2B2B2B" transform="translate(405,491)"/>
<path d="M0 0 C2 1 2 1 2 1 Z " fill="#2B2B2B" transform="translate(105,491)"/>
<path d="" fill="#2A2A2A" transform="translate(0,0)"/>
<path d="" fill="#2B2B2B" transform="translate(0,0)"/>
<path d="M0 0 C2 1 2 1 2 1 Z " fill="#2A2A2A" transform="translate(404,460)"/>
<path d="M0 0 C2 1 2 1 2 1 Z " fill="#2B2B2B" transform="translate(106,460)"/>
<path d="M0 0 C2 1 2 1 2 1 Z " fill="#69B6A7" transform="translate(264,435)"/>
<path d="M0 0 C2 1 2 1 2 1 Z " fill="#68B6A5" transform="translate(254,435)"/>
<path d="" fill="#61BAA7" transform="translate(0,0)"/>
<path d="" fill="#60BAA8" transform="translate(0,0)"/>
<path d="" fill="#60BAA7" transform="translate(0,0)"/>
<path d="" fill="#61BCA7" transform="translate(0,0)"/>
<path d="" fill="#62B8A5" transform="translate(0,0)"/>
<path d="" fill="#61B9A6" transform="translate(0,0)"/>
<path d="" fill="#5FBBA7" transform="translate(0,0)"/>
<path d="M0 0 C2 1 2 1 2 1 Z " fill="#61BAA8" transform="translate(457,366)"/>
<path d="M0 0 C2 1 2 1 2 1 Z " fill="#60B9A6" transform="translate(212,366)"/>
<path d="M0 0 C2 1 2 1 2 1 Z " fill="#62BAA8" transform="translate(210,365)"/>
<path d="" fill="#5FBAA5" transform="translate(0,0)"/>
<path d="" fill="#61B8A6" transform="translate(0,0)"/>
<path d="" fill="#64B8A7" transform="translate(0,0)"/>
<path d="" fill="#5EBBA7" transform="translate(0,0)"/>
<path d="" fill="#5EBBA7" transform="translate(0,0)"/>
<path d="" fill="#63B8A9" transform="translate(0,0)"/>
<path d="" fill="#61B9A8" transform="translate(0,0)"/>
<path d="" fill="#6BB4A7" transform="translate(0,0)"/>
<path d="M0 0 C2 1 2 1 2 1 Z " fill="#E26266" transform="translate(95,247)"/>
<path d="" fill="#EA5F63" transform="translate(0,0)"/>
<path d="" fill="#6BB6A5" transform="translate(0,0)"/>
<path d="" fill="#60BAA4" transform="translate(0,0)"/>
<path d="" fill="#62B9A9" transform="translate(0,0)"/>
<path d="" fill="#63B9A6" transform="translate(0,0)"/>
<path d="" fill="#E65F5F" transform="translate(0,0)"/>
<path d="" fill="#63B7A7" transform="translate(0,0)"/>
<path d="" fill="#61BAA8" transform="translate(0,0)"/>
<path d="" fill="#61B9A9" transform="translate(0,0)"/>
<path d="" fill="#60BBA6" transform="translate(0,0)"/>
<path d="" fill="#E65F61" transform="translate(0,0)"/>
<path d="M0 0 C2 1 2 1 2 1 Z " fill="#5FBAA8" transform="translate(459,211)"/>
<path d="M0 0 C2 1 2 1 2 1 Z " fill="#62BAA7" transform="translate(210,211)"/>
<path d="M0 0 C2 1 2 1 2 1 Z " fill="#63B8A6" transform="translate(457,210)"/>
<path d="M0 0 C2 1 2 1 2 1 Z " fill="#5FB9AF" transform="translate(212,210)"/>
<path d="M0 0 C2 1 2 1 2 1 Z " fill="#5FBAAA" transform="translate(214,209)"/>
<path d="" fill="#E65F65" transform="translate(0,0)"/>
<path d="" fill="#E46062" transform="translate(0,0)"/>
<path d="" fill="#E85F62" transform="translate(0,0)"/>
<path d="" fill="#E76064" transform="translate(0,0)"/>
<path d="M0 0 C2 1 2 1 2 1 Z " fill="#E56063" transform="translate(296,179)"/>
<path d="M0 0 C2 1 2 1 2 1 Z " fill="#E16265" transform="translate(55,179)"/>
<path d="M0 0 C2 1 2 1 2 1 Z " fill="#E85F61" transform="translate(49,176)"/>
<path d="M0 0 C2 1 2 1 2 1 Z " fill="#EA5E64" transform="translate(46,174)"/>
<path d="" fill="#E75F64" transform="translate(0,0)"/>
<path d="" fill="#E65E61" transform="translate(0,0)"/>
<path d="" fill="#E46163" transform="translate(0,0)"/>
<path d="" fill="#E85F62" transform="translate(0,0)"/>
<path d="" fill="#E85F62" transform="translate(0,0)"/>
<path d="" fill="#E16165" transform="translate(0,0)"/>
<path d="" fill="#E16263" transform="translate(0,0)"/>
<path d="" fill="#E96063" transform="translate(0,0)"/>
<path d="" fill="#E65F63" transform="translate(0,0)"/>
<path d="" fill="#E76064" transform="translate(0,0)"/>
<path d="" fill="#E56063" transform="translate(0,0)"/>
<path d="" fill="#E46065" transform="translate(0,0)"/>
<path d="M0 0 C2 1 2 1 2 1 Z " fill="#E75E61" transform="translate(303,25)"/>
<path d="M0 0 C2 1 2 1 2 1 Z " fill="#DB6469" transform="translate(298,22)"/>
<path d="M0 0 C2 1 2 1 2 1 Z " fill="#E06063" transform="translate(54,22)"/>
<path d="M0 0 C2 1 2 1 2 1 Z " fill="#E75F62" transform="translate(295,21)"/>
<path d="M0 0 C2 1 2 1 2 1 Z " fill="#E46161" transform="translate(56,21)"/>
<path d="" fill="#2B2B2B" transform="translate(0,0)"/>
<path d="" fill="#2A2A2A" transform="translate(0,0)"/>
<path d="" fill="#2C2C2C" transform="translate(0,0)"/>
<path d="" fill="#292929" transform="translate(0,0)"/>
<path d="" fill="#2A2A2A" transform="translate(0,0)"/>
<path d="" fill="#2B2B2B" transform="translate(0,0)"/>
<path d="" fill="#292929" transform="translate(0,0)"/>
<path d="" fill="#2D2D2D" transform="translate(0,0)"/>
<path d="" fill="#2A2A2A" transform="translate(0,0)"/>
<path d="" fill="#2B2B2B" transform="translate(0,0)"/>
<path d="" fill="#2B2B2B" transform="translate(0,0)"/>
<path d="" fill="#2A2A2A" transform="translate(0,0)"/>
<path d="" fill="#2B2B2B" transform="translate(0,0)"/>
<path d="" fill="#2A2A2A" transform="translate(0,0)"/>
<path d="" fill="#2A2A2A" transform="translate(0,0)"/>
<path d="" fill="#2C2C2C" transform="translate(0,0)"/>
<path d="" fill="#2A2A2A" transform="translate(0,0)"/>
<path d="" fill="#2A2A2A" transform="translate(0,0)"/>
<path d="" fill="#2A2A2A" transform="translate(0,0)"/>
<path d="" fill="#2C2C2C" transform="translate(0,0)"/>
<path d="" fill="#2B2B2B" transform="translate(0,0)"/>
<path d="" fill="#2B2B2B" transform="translate(0,0)"/>
<path d="" fill="#2B2B2B" transform="translate(0,0)"/>
<path d="" fill="#5EBAA6" transform="translate(0,0)"/>
<path d="" fill="#61BBA5" transform="translate(0,0)"/>
<path d="" fill="#62BBA8" transform="translate(0,0)"/>
<path d="" fill="#62BAA5" transform="translate(0,0)"/>
<path d="" fill="#61BBA5" transform="translate(0,0)"/>
<path d="" fill="#5FBBA5" transform="translate(0,0)"/>
<path d="" fill="#61BAA7" transform="translate(0,0)"/>
<path d="" fill="#61BAA7" transform="translate(0,0)"/>
<path d="" fill="#61BAA7" transform="translate(0,0)"/>
<path d="" fill="#5FB9A6" transform="translate(0,0)"/>
<path d="" fill="#62B9A7" transform="translate(0,0)"/>
<path d="" fill="#62B9A7" transform="translate(0,0)"/>
<path d="" fill="#61BAA7" transform="translate(0,0)"/>
<path d="" fill="#5FB9A8" transform="translate(0,0)"/>
<path d="" fill="#5FB9A8" transform="translate(0,0)"/>
<path d="" fill="#5FB9A6" transform="translate(0,0)"/>
<path d="" fill="#64B9A7" transform="translate(0,0)"/>
<path d="" fill="#61BAA7" transform="translate(0,0)"/>
<path d="" fill="#5EBAA6" transform="translate(0,0)"/>
<path d="" fill="#63BAA8" transform="translate(0,0)"/>
<path d="" fill="#5FBBA7" transform="translate(0,0)"/>
<path d="" fill="#5EBAA6" transform="translate(0,0)"/>
<path d="" fill="#60BCA8" transform="translate(0,0)"/>
<path d="" fill="#61BAA7" transform="translate(0,0)"/>
<path d="" fill="#5FB9A6" transform="translate(0,0)"/>
<path d="" fill="#62B9A7" transform="translate(0,0)"/>
<path d="" fill="#5FBBA7" transform="translate(0,0)"/>
<path d="" fill="#61BAA7" transform="translate(0,0)"/>
<path d="" fill="#61BAA9" transform="translate(0,0)"/>
<path d="" fill="#61BAA7" transform="translate(0,0)"/>
<path d="" fill="#61BAA7" transform="translate(0,0)"/>
<path d="" fill="#61BAA9" transform="translate(0,0)"/>
<path d="" fill="#5FBBA9" transform="translate(0,0)"/>
<path d="" fill="#62B9A7" transform="translate(0,0)"/>
<path d="" fill="#62BBA8" transform="translate(0,0)"/>
<path d="" fill="#5FB9A8" transform="translate(0,0)"/>
<path d="" fill="#61BAA7" transform="translate(0,0)"/>
<path d="" fill="#61BAA7" transform="translate(0,0)"/>
<path d="" fill="#61BBA5" transform="translate(0,0)"/>
<path d="" fill="#5FB9A6" transform="translate(0,0)"/>
<path d="" fill="#62B9A7" transform="translate(0,0)"/>
<path d="" fill="#62BBA8" transform="translate(0,0)"/>
<path d="" fill="#61BAA7" transform="translate(0,0)"/>
<path d="" fill="#61BAA7" transform="translate(0,0)"/>
<path d="" fill="#5FB9A6" transform="translate(0,0)"/>
<path d="" fill="#61BAA7" transform="translate(0,0)"/>
<path d="" fill="#62B9A7" transform="translate(0,0)"/>
<path d="" fill="#62B9A7" transform="translate(0,0)"/>
<path d="" fill="#62B9A7" transform="translate(0,0)"/>
<path d="" fill="#61BAA7" transform="translate(0,0)"/>
<path d="" fill="#61BBA5" transform="translate(0,0)"/>
<path d="" fill="#61BAA7" transform="translate(0,0)"/>
<path d="" fill="#62B9A7" transform="translate(0,0)"/>
<path d="" fill="#61BAA7" transform="translate(0,0)"/>
<path d="" fill="#5FB9A6" transform="translate(0,0)"/>
<path d="" fill="#61BAA7" transform="translate(0,0)"/>
<path d="" fill="#61B8A6" transform="translate(0,0)"/>
<path d="" fill="#61BAA7" transform="translate(0,0)"/>
<path d="" fill="#61BAA7" transform="translate(0,0)"/>
<path d="" fill="#5EBAA6" transform="translate(0,0)"/>
<path d="" fill="#5FB9A6" transform="translate(0,0)"/>
<path d="" fill="#61BAA7" transform="translate(0,0)"/>
<path d="" fill="#5FB9A4" transform="translate(0,0)"/>
<path d="" fill="#5FB9A4" transform="translate(0,0)"/>
<path d="" fill="#5FBBA7" transform="translate(0,0)"/>
<path d="" fill="#5FB9A6" transform="translate(0,0)"/>
<path d="" fill="#61BAA7" transform="translate(0,0)"/>
<path d="" fill="#E85F62" transform="translate(0,0)"/>
<path d="" fill="#E96063" transform="translate(0,0)"/>
<path d="" fill="#E55F61" transform="translate(0,0)"/>
<path d="" fill="#E66062" transform="translate(0,0)"/>
<path d="" fill="#E96065" transform="translate(0,0)"/>
<path d="" fill="#E96061" transform="translate(0,0)"/>
<path d="" fill="#E85F60" transform="translate(0,0)"/>
<path d="" fill="#E66060" transform="translate(0,0)"/>
<path d="" fill="#E66062" transform="translate(0,0)"/>
<path d="" fill="#E85F62" transform="translate(0,0)"/>
<path d="" fill="#E65F64" transform="translate(0,0)"/>
<path d="" fill="#E55F61" transform="translate(0,0)"/>
<path d="" fill="#E75E5F" transform="translate(0,0)"/>
<path d="" fill="#E96063" transform="translate(0,0)"/>
<path d="" fill="#5DB9A5" transform="translate(0,0)"/>
<path d="" fill="#EA5E64" transform="translate(0,0)"/>
<path d="" fill="#E66167" transform="translate(0,0)"/>
<path d="" fill="#65BAA8" transform="translate(0,0)"/>
<path d="" fill="#62BBA8" transform="translate(0,0)"/>
<path d="" fill="#62BBA8" transform="translate(0,0)"/>
<path d="" fill="#61BAA9" transform="translate(0,0)"/>
<path d="" fill="#E96065" transform="translate(0,0)"/>
<path d="" fill="#E65F64" transform="translate(0,0)"/>
<path d="" fill="#62BBA8" transform="translate(0,0)"/>
<path d="" fill="#E85F62" transform="translate(0,0)"/>
<path d="" fill="#61BAA7" transform="translate(0,0)"/>
<path d="" fill="#61BAA7" transform="translate(0,0)"/>
<path d="" fill="#E85F62" transform="translate(0,0)"/>
<path d="" fill="#62B9A7" transform="translate(0,0)"/>
<path d="" fill="#62BBA8" transform="translate(0,0)"/>
<path d="" fill="#61BAA7" transform="translate(0,0)"/>
<path d="" fill="#61BAA7" transform="translate(0,0)"/>
<path d="" fill="#61BAA7" transform="translate(0,0)"/>
<path d="" fill="#5EB8A5" transform="translate(0,0)"/>
<path d="" fill="#EA5D66" transform="translate(0,0)"/>
<path d="" fill="#61BAA7" transform="translate(0,0)"/>
<path d="" fill="#61BAA7" transform="translate(0,0)"/>
<path d="" fill="#E96065" transform="translate(0,0)"/>
<path d="" fill="#5FB9A6" transform="translate(0,0)"/>
<path d="" fill="#E26264" transform="translate(0,0)"/>
<path d="" fill="#61BAA7" transform="translate(0,0)"/>
<path d="" fill="#E65F64" transform="translate(0,0)"/>
<path d="" fill="#E85F62" transform="translate(0,0)"/>
<path d="" fill="#E86163" transform="translate(0,0)"/>
<path d="" fill="#EB5F63" transform="translate(0,0)"/>
<path d="" fill="#E85F62" transform="translate(0,0)"/>
<path d="" fill="#E85F62" transform="translate(0,0)"/>
<path d="" fill="#E96063" transform="translate(0,0)"/>
<path d="" fill="#E86163" transform="translate(0,0)"/>
<path d="" fill="#E86163" transform="translate(0,0)"/>
<path d="" fill="#E85F62" transform="translate(0,0)"/>
<path d="" fill="#E86163" transform="translate(0,0)"/>
<path d="" fill="#E96065" transform="translate(0,0)"/>
<path d="" fill="#E85D63" transform="translate(0,0)"/>
<path d="" fill="#EA6164" transform="translate(0,0)"/>
<path d="" fill="#E56160" transform="translate(0,0)"/>
<path d="" fill="#E85F60" transform="translate(0,0)"/>
<path d="" fill="#E66062" transform="translate(0,0)"/>
<path d="" fill="#E85F62" transform="translate(0,0)"/>
<path d="" fill="#E86163" transform="translate(0,0)"/>
<path d="" fill="#E66062" transform="translate(0,0)"/>
<path d="" fill="#E85F62" transform="translate(0,0)"/>
<path d="" fill="#E86065" transform="translate(0,0)"/>
<path d="" fill="#E86065" transform="translate(0,0)"/>
<path d="" fill="#E85F62" transform="translate(0,0)"/>
<path d="" fill="#E96065" transform="translate(0,0)"/>
<path d="" fill="#E96061" transform="translate(0,0)"/>
<path d="" fill="#E65F64" transform="translate(0,0)"/>
<path d="" fill="#E85F60" transform="translate(0,0)"/>
<path d="" fill="#E85F62" transform="translate(0,0)"/>
<path d="" fill="#E75E61" transform="translate(0,0)"/>
<path d="" fill="#E65F64" transform="translate(0,0)"/>
<path d="" fill="#E85F62" transform="translate(0,0)"/>
<path d="" fill="#E85F64" transform="translate(0,0)"/>
<path d="" fill="#E75D63" transform="translate(0,0)"/>
<path d="" fill="#E86065" transform="translate(0,0)"/>
<path d="" fill="#E85F64" transform="translate(0,0)"/>
<path d="" fill="#E75E61" transform="translate(0,0)"/>
<path d="" fill="#E85F62" transform="translate(0,0)"/>
<path d="" fill="#E85F62" transform="translate(0,0)"/>
<path d="" fill="#E96063" transform="translate(0,0)"/>
<path d="" fill="#E85F64" transform="translate(0,0)"/>
<path d="" fill="#E26063" transform="translate(0,0)"/>
<path d="" fill="#E96063" transform="translate(0,0)"/>
<path d="" fill="#E36164" transform="translate(0,0)"/>
<path d="" fill="#E36367" transform="translate(0,0)"/>
<path d="" fill="#E36164" transform="translate(0,0)"/>
<path d="" fill="#E66062" transform="translate(0,0)"/>
<path d="" fill="#E85F62" transform="translate(0,0)"/>
<path d="" fill="#E65F64" transform="translate(0,0)"/>
<path d="" fill="#E85F62" transform="translate(0,0)"/>
<path d="" fill="#E96063" transform="translate(0,0)"/>
<path d="" fill="#E96063" transform="translate(0,0)"/>
<path d="" fill="#E75D63" transform="translate(0,0)"/>
<path d="" fill="#E96065" transform="translate(0,0)"/>
<path d="" fill="#E85F64" transform="translate(0,0)"/>
<path d="" fill="#E65F64" transform="translate(0,0)"/>
<path d="" fill="#E85D63" transform="translate(0,0)"/>
<path d="" fill="#E65F64" transform="translate(0,0)"/>
<path d="" fill="#E85F62" transform="translate(0,0)"/>
<path d="" fill="#E85F64" transform="translate(0,0)"/>
<path d="" fill="#E75D63" transform="translate(0,0)"/>
<path d="" fill="#E96065" transform="translate(0,0)"/>
<path d="" fill="#E55E63" transform="translate(0,0)"/>
</svg>
